# xmcd CD database file
#
# Track frame offsets:
#	150
#	25781
#	57644
#	92853
#	112578
#	149103
#	167914
#	186415
#	213707
#
# Disc length: 3051 seconds
#
# Revision: 0
# Processed by: cddbd v1.5.1PL0 Copyright (c) Steve Scherf et al.
# Submitted via: CDex 1.51
#
DISCID=890be909
DTITLE=Edward Simon - The Process
DYEAR=2002
DGENRE=Jazz
TTITLE0=Navigator
TTITLE1=Calabria
TTITLE2=The Process
TTITLE3=Azules
TTITLE4=Woody'n you
TTITLE5=Reprocess
TTITLE6=Tonada del Cabrestero
TTITLE7=I'm in the mood for love
TTITLE8=Azules Reprise
EXTD=YEAR: 2002
EXTT0=
EXTT1=
EXTT2=
EXTT3=
EXTT4=
EXTT5=
EXTT6=
EXTT7=
EXTT8=
PLAYORDER=
